<svg xmlns="http://www.w3.org/2000/svg" xmlns:xlink="http://www.w3.org/1999/xlink" viewBox="0 0 3000 2250">
    <defs>
        <linearGradient id="a">
            <stop offset="0" stop-color="#255b87"/>
            <stop offset="1" stop-color="#255b87" stop-opacity="0"/>
        </linearGradient>
        <linearGradient xlink:href="#a" id="d" x1="1480.766" y1="1657.845" x2="1492.055" y2="2235.699" gradientUnits="userSpaceOnUse"/>
    </defs>
    <switch>
        <g>
            <defs>
                <path id="b" d="M0 0h3000v2250H0z"/>
            </defs>
            <clipPath id="c">
                <use xlink:href="#b" overflow="visible"/>
            </clipPath>
            <path clip-path="url(#c)" fill="url(#d)" paint-order="stroke fill markers" d="M0 1661.8h3000V2250H0z"/>
            <path clip-path="url(#c)" fill="none" d="M0 0h3000v1661.8H0z"/>
            <path clip-path="url(#c)" d="M625 1677c-122.2 240.7 31.6 656.7 244 724 117.4 37.2 163.6-60.3 376-100 420.1-78.6 679.3 220.6 844 88 76.4-61.5 24.1-128.5 124-376 102.1-253 198.5-286.6 184-360-54.1-272.7-1518.7-474.9-1772 24z" fill="none" opacity=".3"/>
            <path clip-path="url(#c)" d="M2415.1 1557.4c-6.2 37.6-22.1 85.1-22.1 105.6 0 7.6-17.5 18.2-43.6 29.9-55.8 24.9-151 54.5-199.7 69.1-18.8 5.6-30.7 9-30.7 9H913s-124 0-294.8-106c-13.7-8.5-25.1-17-34.5-25.4-19.7-17.6-30.8-34.9-35.8-51.6-22.9-75.7 79.1-137 79.1-137-11-21.9-10.3-44.8-5.4-64.5 6.5-26.3 20.6-46.9 24.4-52.2.6-.9 1-1.3 1-1.3-7.4-58.3 56.7-152.8 106.5-216.1 25.6-32.5 47.4-56.9 53.7-63.8 1.2-1.3 1.9-2 1.9-2 34.2-172.8 274.2-235.6 321.8-246.5 5.3-1.2 8.2-1.8 8.2-1.8s492 28.2 652 12.2c5.2-.5 10.3-.8 15.4-.8C1957.6 813 2055 1019 2055 1019c108 6 130 174 130 174 80 6 174 222 174 222 25.4 0 36.9 34.9 45.6 66 3.7 12.9 6.8 25.2 10.4 34 3.8 9.5 3 24.9.1 42.4z" fill="#3978A7"/>
            <path clip-path="url(#c)" d="M1809.1 910.5s9 221.6-43.5 257.6c-52.5 36-33-192-33-192s-177 120-166.5 318 387 45 387 45-16.5-363 18-370.5c0 0-75-19.4-91.5 132.1 0 0-52.5-195.1-64.5-196.6s-6 6.4-6 6.4zm-653.4 0s-9 221.6 43.5 257.6c52.5 36 33-192 33-192s177 120 166.5 318-387 45-387 45 16.5-363-18-370.5c0 0 75-19.4 91.5 132.1 0 0 52.5-195.1 64.5-196.6s6 6.4 6 6.4z" fill="#173955" opacity=".3"/>
            <path clip-path="url(#c)" d="M781.6 1674.1c1.5-4.5-16.5-124.5 51-142.5 0 0-100.5 0-106.5 114s36-33 36-33l19.5 61.5zm-78-199.5c-78-14.9-119.9 165-119.9 165-19.7-17.6-30.8-34.9-35.8-51.6 40.3-144.8 153.5-114 155.7-113.4zm93.2-22.3c-35.4-28.3-123-52.9-175.1-65.8 6.5-26.3 20.6-46.9 24.4-52.2 58.3 11.5 122.3 83 150.7 118zm97.3-186.2l-132-75-8.7-74.3c25.6-32.5 47.4-56.9 53.7-63.8-1.7 51-3 103.6-3 103.6l90 109.5zm1164-213c-1.5-13.4-35.5 164.9-87 153 0 0 105 6 87-153zm346.5 427.9c-47.9-82.1-243.1-63.4-243.1-63.4 160.7 25.5 228.9 101.8 253.5 139.9l-10.4-76.5zm-254.9 281c-.1-9.9 92.9-78.9 29.9-203.4-63-124.5 88.5 55.5 108 72s61.8 62.3 61.8 62.3c-55.8 24.9-151 54.5-199.7 69.1z" fill="#173955" opacity=".5"/>
            <g clip-path="url(#c)" opacity=".5">
                <path d="M1141.2 833c36.2 2 310.9 17 504 17 65.1 0 115.1-1.7 148.7-5.1 4.2-.4 8.4-.6 12.5-.7h1.1c28.4 0 57.1 9.1 85.5 27 24.1 15.2 47.9 36.6 70.8 63.8 40.3 47.7 63.7 96.4 63.9 96.9l7.6 16.1 17.8 1c17.3 1 32.5 7.8 46.4 21 12.4 11.8 23.5 28.4 32.9 49.4 17.3 38.3 22.6 77.2 22.7 77.5l3.2 24.2 24.3 1.8c4.8.4 18.4 3.8 41.3 27.8 16.2 17 33.8 40.8 52.1 70.7 32.1 52.4 55.2 105.1 55.4 105.6l7.8 18h18.3c1.2 1.1 3.9 4.4 7.4 12.2 3.7 8.2 6.8 18.1 9.6 28v8.2l3.2 3.2c3 10.7 5.8 20.8 9.2 29.3.2.7 1.6 7.1-1.6 26.6-2.5 15.3-6.9 32.9-11.1 49.8-4.7 18.9-8.9 35.8-10.6 49.5-4.1 2.7-12.1 7.2-26.6 13.7-55.8 25-155.7 55.7-196.1 67.8-12.1 3.6-21.4 6.3-26.3 7.8H913.1c-1.1 0-30.4-.5-78.7-13-28.7-7.4-58.4-17.6-88.3-30.1-37.4-15.7-75.1-35.4-112.1-58.3-11.7-7.3-22-14.8-30.4-22.3-13.9-12.5-23-25-26.9-37.2l-.2-.8c-3.2-10.7-2.6-21.6 1.8-33.3 4.1-10.9 11.5-22.2 21.8-33.7 19.1-21.3 41.5-35.1 42.3-35.6l23.8-14.2-12.5-24.9c-6.2-12.4-7.2-27.1-3.1-43.8 5.3-21.1 17-38.3 19.5-41.8.4-.5.6-.8.6-.8l7.4-9.8-1.6-12.2c-1.4-11 .4-37.1 28.3-87.9 17.3-31.4 41.5-67 72-105.9 24.8-31.6 46.2-55.4 52.2-62.1l1.9-2 5.7-6.2 1.6-8.2c6.8-34.3 23.8-66.3 50.6-95.4 23-24.9 53.4-47.9 90.3-68.2 67.6-37.2 138.1-55 158.1-59.5 1.7-.4 3-.7 4-.9m-2.2-30.2s-2.9.6-8.2 1.8c-47.6 10.8-287.6 73.6-321.8 246.5 0 0-.6.7-1.9 2-6.3 7-28.1 31.3-53.7 63.8-49.8 63.3-113.9 157.8-106.5 216.1 0 0-.4.5-1 1.3-3.8 5.3-17.8 25.9-24.4 52.2-4.9 19.7-5.6 42.6 5.4 64.5 0 0-102 61.3-79.1 136.9 5 16.7 16.2 34.1 35.8 51.6 9.4 8.5 20.9 16.9 34.5 25.4C789 1771 913 1771 913 1771h1206s11.9-3.4 30.7-9c48.7-14.6 143.9-44.2 199.7-69.1 26.1-11.7 43.6-22.3 43.6-29.9 0-20.5 15.8-67.9 22.1-105.5 2.9-17.5 3.8-32.9-.1-42.5-3.5-8.8-6.7-21.1-10.3-34-8.8-31.1-20.2-66-45.6-66 0 0-94-216-174-222 0 0-22-168-130-174 0 0-96.8-204.8-247.4-204.8h-1.2c-5.1 0-10.2.3-15.4.8-35.3 3.5-86.9 4.9-145.7 4.9-207.7 0-506.4-17.1-506.4-17.1z" fill="#326994"/>
            </g>
            <g clip-path="url(#c)">
                <path d="M1488 1039.9c0 .2-.4 3.7-.7 9.4-.3 5.6-.8 13.3-1 21.7-.1 2.1-.1 4.2-.2 6.4s-.1 4.4-.2 6.5c-.1 4.4-.2 8.8-.2 13 0 4.2-.1 8.3-.1 12v10h1.5v-12.3c0-3.7.1-8 .1-12.6.1-4.6.2-9.5.3-14.5.1-4.9.3-9.8.5-14.4s.4-8.9.6-12.5c.2-3.7.4-6.7.6-8.8.1-1 .2-1.9.2-2.4.1-.5.1-.8.1-.8l-1.5-.7zm-6.9-3.1s0 .5-.1 1.2c-.1.6-.1 1.4-.2 2.5s-.2 2.2-.3 3.6c-.1 1.4-.2 3-.3 4.6-.1 1.7-.2 3.5-.3 5.4-.1 1.9-.2 3.9-.3 6-.2 4.2-.4 8.7-.5 13.4 0 1.2-.1 2.3-.1 3.5 0 1.2-.1 2.3-.1 3.5-.1 2.3-.1 4.6-.2 6.9-.1 4.6-.1 9-.2 13.1 0 4.1-.1 7.8-.1 10.9v7.4h1.5v-12.5c0-3.8.1-8.2.1-12.9.1-4.7.2-9.7.3-14.8.1-2.5.2-5 .2-7.5.1-2.5.2-4.9.3-7.3.2-4.8.4-9.2.7-13.1.4-7.7 1-13 1-13.4l-1.4-.5zm14.5 6.7c0-.2-.2 2.2-.5 6.7-.2 2.2-.3 5-.5 8-.1 3.1-.3 6.6-.5 10.3-.1 3.8-.3 7.7-.4 11.9-.1 4.2-.2 8.5-.3 12.8-.1 8.7-.2 17.5-.2 25.7h1.5v-12.1c0-3.6.1-7.8.1-12.4.1-4.5.2-9.3.3-14.1.1-2.4.2-4.8.2-7.1.1-2.3.1-4.6.2-6.8.2-4.4.4-8.5.6-11.9.4-6.9.8-11.1.8-10.4l-1.3-.6zm8.5 3.9c.1-1.3-.6 5.9-1.1 18.8-.6 12.9-1 31.5-1 52.7h1.5V1107c0-3.5.1-7.6.1-12.1.1-4.4.2-9 .3-13.7 0-2.3.2-4.6.2-6.8.1-2.2.1-4.5.2-6.6.2-4.2.4-8.1.6-11.2 0-.8.1-1.6.1-2.3 0-.7.1-1.3.1-1.9 0-.6.1-1.2.1-1.7s.1-1 .1-1.3c.1-.7.1-1.2.1-1.5v.1l-1.3-.6z"/>
                <path d="M1468.3 1118.8V1106c0-3.9.1-8.4.1-13.3.1-4.9.2-10.1.3-15.3.1-2.6.2-5.3.3-7.9.1-2.6.2-5.1.3-7.7.2-5.1.4-9.7.7-14 .1-1 .1-2 .2-3 .1-.9.1-1.9.2-2.8.1-.9.1-1.7.2-2.5s.1-1.5.2-2.2c.1-1.5.2-2.6.3-3.4.1-1.2.2-1.8.2-1.8l34.1 16v-.1c0 .4-.1.9-.1 1.5 0 .3-.1.8-.1 1.3s-.1 1.1-.1 1.7c0 .6-.1 1.2-.1 1.9s-.1 1.5-.1 2.3c-.2 3.1-.4 7.1-.6 11.2-.1 2.1-.2 4.3-.2 6.6-.1 2.3-.2 4.5-.2 6.8-.1 4.7-.2 9.3-.3 13.7 0 4.4-.1 8.5-.1 12.1-.1 3.5 0 6.5 0 8.6v3.3l-35.2-.2z" fill="none"/>
                <path d="M1485.4 1118.9v9.4c0 5.7.1 13.4.2 21.8s.3 17.5.5 25.9c.2 8.4.5 16.2.6 21.9l1.5-.2s-.1-4.9-.4-12.3c-.3-7.4-.4-17.2-.6-27.1-.1-4.9-.2-9.9-.2-14.5s-.1-8.9-.1-12.6v-12.3h-1.5zm-7.1 0v10.8c.1 6.5.2 15.1.2 24.3.2 9.1.3 18.6.5 26.7.2 8.1.4 14.7.5 18.2l1.5-.2s-.1-5-.4-12.4c-.3-7.4-.4-17.4-.6-27.4-.1-5-.2-10-.2-14.7 0-4.7-.1-9-.1-12.8v-12.5h-1.4zm14.9.1v7.9c0 4.8.1 11.4.2 19.1.2 15.3.6 34.6 1.1 51l1.5-.2s-.1-4.9-.4-12.2c-.3-7.3-.4-17-.6-26.8-.1-4.9-.2-9.7-.2-14.3 0-4.6-.1-8.8-.1-12.5v-12.1l-1.5.1zm8.7 0v6.3c0 3.9.1 9.4.1 16.3 0 3.4.1 7.2.1 11.2.1 4.1.2 8.4.3 13 0 2.3.1 4.6.1 7 0 2.4.1 4.9.2 7.4.1 5 .3 10.3.5 15.6l1.5-.2s-.1-4.8-.3-12c-.3-7.2-.4-16.8-.6-26.4-.1-4.8-.2-9.6-.2-14.1s-.1-8.7-.1-12.2V1119h-1.6z"/>
                <path d="M1469.7 1200.1s-.1-5-.4-12.6c-.3-7.6-.4-17.7-.6-27.9-.1-5.1-.2-10.2-.2-15 0-4.8-.1-9.2-.1-13.1v-12.8l35 .2v11.9c0 3.6.1 7.8.1 12.2 0 4.5.1 9.3.2 14.1.2 9.6.3 19.2.6 26.4.2 7.2.3 12 .3 12l-34.9 4.6z" fill="none"/>
                <path d="M1486.7 1198c0 .2.1 3.8.3 9.4.2 5.6.5 13.3.8 21.7.2 4.2.3 8.6.5 12.9.2 4.4.4 8.7.6 12.9.4 8.4.7 16.1 1 21.8l1.5-.3s-.1-1.2-.2-3.4c-.1-2.1-.2-5.2-.4-8.9-.3-7.4-.8-17.2-1.2-27-.4-9.8-.7-19.7-1-27.1-.2-3.7-.2-6.8-.3-8.9-.1-2.2-.1-3.4-.1-3.4l-1.5.3zm-7 .9c0 .1.1 4.3.3 10.7.2 6.4.6 15 .9 24.1.1 2.3.2 4.5.3 6.8.1 2.3.2 4.5.3 6.8.2 4.5.4 8.8.6 12.9.4 8 .7 14.6.9 18l1.5-.3s-.1-1.2-.2-3.4-.2-5.3-.4-9c-.3-7.4-.8-17.3-1.3-27.2-.4-9.9-.8-19.8-1-27.3-.2-3.7-.2-6.8-.3-9-.1-2.2-.1-3.4-.1-3.4l-1.5.3zm14.8-1.9c0 .2.1 3.1.2 7.9.2 4.8.4 11.5.7 19.1.1 3.8.3 7.9.5 12.1.2 4.2.4 8.6.6 13 .4 8.8.8 17.7 1.2 25.9l1.5-.3s-.1-1.2-.2-3.4c-.1-2.1-.2-5.2-.4-8.8-.3-7.3-.8-17.1-1.2-26.8-.4-9.8-.7-19.5-1-26.8-.2-3.7-.2-6.7-.3-8.8-.1-2.1-.1-3.4-.1-3.4l-1.5.3zm8.7-1.1c0 .2.1 2.5.2 6.4.1 3.9.3 9.5.6 16.4.1 3.5.3 7.2.4 11.3.1 2 .2 4.1.2 6.3.1 2.2.2 4.4.3 6.7.4 9.2.9 19.4 1.4 30.2l1.5-.3s-.1-1.2-.2-3.3c-.1-2.1-.2-5.1-.4-8.8-.3-7.2-.8-16.9-1.2-26.6-.4-9.7-.7-19.3-1-26.5-.2-3.6-.2-6.6-.3-8.7-.1-2.1-.1-3.3-.1-3.3l-1.4.2z"/>
                <path d="M1473 1280.4s-.1-1.2-.2-3.4-.2-5.3-.4-9.1c-.3-7.5-.8-17.5-1.3-27.5-.4-10.1-.8-20.1-1.1-27.6-.2-3.8-.2-6.9-.3-9.1-.1-2.2-.1-3.5-.1-3.5l35-4.5s0 1.2.1 3.3c.1 2.1.1 5.1.3 8.7.3 7.2.6 16.9 1 26.5.4 9.7.9 19.3 1.2 26.6.2 3.6.3 6.6.4 8.8.1 2.1.2 3.3.2 3.3l-34.8 7.5z" fill="none"/>
                <path d="M1490 1276.8c0 .3.8 14.3 1.7 31 .2 4.2.5 8.5.8 12.9.3 4.3.5 8.7.8 12.9.5 8.4 1 16.1 1.4 21.8l1.4-.4s-1.2-19.6-2.5-39.2l-2.2-39.2-1.4.2zm-7.1 1.6c0 .3.9 16.6 1.9 34.6 1.1 17.9 2.3 37.5 2.8 44.3l1.4-.4s-1.2-19.7-2.5-39.4c-.6-9.9-1.1-19.7-1.5-27.1-.4-7.4-.7-12.3-.7-12.3l-1.4.3zm14.8-3.3c0 .4.6 11.7 1.5 27.1.4 7.7 1 16.3 1.5 25.1.6 8.8 1.1 17.7 1.6 25.8l1.4-.4s-1.2-19.5-2.5-38.9l-2.2-39-1.3.3zm8.7-1.9c0 .4.5 9 1.3 22.9.2 3.5.4 7.3.6 11.3.2 4.1.5 8.4.8 13 .6 9.2 1.2 19.4 1.9 30.2l1.4-.4s-1.2-19.3-2.4-38.7c-1.1-19.3-2.2-38.7-2.2-38.7l-1.4.4z"/>
                <path d="M1477.7 1360s-1.3-19.9-2.5-39.7c-.6-9.9-1.1-19.9-1.5-27.4-.4-7.5-.7-12.5-.7-12.5l34.8-7.6s1.1 19.3 2.2 38.7c1.2 19.3 2.4 38.7 2.4 38.7l-34.7 9.8z" fill="none"/>
            </g>
            <g clip-path="url(#c)">
                <path d="M1269.7 1294.8c-10.5 0-19.9-7.4-22-18.1-27.2-136.7 71.3-333.9 75.5-342.3 5.6-11.1 19.1-15.5 30.2-9.9 11.1 5.6 15.5 19.1 9.9 30.2-1 1.9-95.7 191.8-71.5 313.2 2.4 12.2-5.5 24-17.7 26.5-1.4.3-2.9.4-4.4.4zm394.1 100.7c-2.1 0-4.3-.3-6.5-1-11.9-3.6-18.7-16.1-15.1-28 23.2-77.2-28.8-326.9-50.7-416.6-3-12.1 4.4-24.3 16.5-27.2 12.1-3 24.2 4.4 27.2 16.5.2.8 20.5 83.9 36.8 178.2 22.3 129 26.8 217.2 13.3 262-2.9 9.8-11.8 16.1-21.5 16.1z" fill="#122E45"/>
            </g>
            <path clip-path="url(#c)" d="M1117 777s-30-40 0-92 68-210 96-204c0 0 68-108 80-140s92-54 124-86 52-44 52-44 46 2 82 36 82 40 100 86 104 190 106 218 58.2 168 64.1 226c5.9 58-704.1 0-704.1 0z" fill="#173955"/>
            <path clip-path="url(#c)" d="M1395 1037s-286-222-278-260 20-44 232-66 374-24 410 0 78 50 56 90-120 128-130 152-94 74-118 106-156 8-172-22z" fill="#00121A"/>
            <path clip-path="url(#c)" d="M811.6 1471.4s-5.5-7.6-14.9-19.2c7.9 6.3 13.1 12.7 14.9 19.2z" fill="#173955"/>
            <path clip-path="url(#c)" d="M1138.6 681.1s87-10.5 96-34.5 136.5-81 136.5-81-167.9 15-166.5 57.7-66 57.8-66 57.8zm165-174.2s84-89.7 126-77.7c0-.1-98.6-29.1-126 77.7zm164.3-94.3s.2-2.9.6-7.9c.2-2.5.4-5.5.6-8.9.1-.9.1-1.7.2-2.6.1-.9.1-1.8.2-2.8.1-1.9.3-3.9.4-6 .2-4.2.6-8.7.9-13.5.1-2.4.4-4.8.5-7.3.1-2.5.3-5 .5-7.6.2-2.6.3-5.2.5-7.9s.4-5.3.5-8c.1-2.7.3-5.4.4-8.2.1-2.7.4-5.5.5-8.2.1-2.8.3-5.5.4-8.3.1-1.4.2-2.7.3-4.1.1-1.4.1-2.7.2-4.1.1-2.7.3-5.4.4-8.1.2-2.7.4-5.3.5-7.9.2-5.2.6-10.2 1-15 .2-2.4.3-4.7.5-7s.3-4.5.5-6.6c.4-4.2.8-8.1 1.1-11.5.3-3.5.7-6.5 1-9 .7-5 1.3-7.9 1.3-7.9s1.1 2.7 2.7 7.5c.8 2.4 1.7 5.3 2.7 8.7.5 1.7 1 3.5 1.4 5.4.4 1.9.8 3.9 1.3 6 .8 4.2 1.7 8.8 2.5 13.7.6 4.9 1.2 10.1 1.7 15.4.3 2.7.3 5.4.5 8.2.1 2.8.2 5.6.2 8.4.1 2.8 0 5.7-.1 8.5-.1 2.9-.2 5.7-.3 8.6-.1 2.9-.4 5.7-.7 8.6-.3 2.9-.6 5.7-.9 8.5-.4 2.8-.8 5.6-1.3 8.3-.5 2.7-.9 5.5-1.5 8.1-1.1 5.3-2.3 10.4-3.7 15.2-.3 1.2-.7 2.4-1 3.5-.3 1.2-.7 2.3-1.1 3.4-.8 2.2-1.5 4.4-2.3 6.4-.8 2-1.6 4-2.3 5.8-.8 1.8-1.5 3.6-2.3 5.2-.8 1.6-1.5 3.1-2.2 4.5-.7 1.4-1.4 2.6-2 3.7-.6 1.1-1.2 2.1-1.8 2.9-.5.8-1 1.5-1.4 2.1-.6 1.3-1.1 1.8-1.1 1.8zm-66.8 234s249 49.5 258 7.5-19.5-75-48-118.5-89.7-118.5-126.6-99-96.9 12-83.4 85.5 0 124.5 0 124.5z" fill="#122E45"/>
            <path clip-path="url(#c)" d="M2071 1947H923.8l-93.1-689.4c-3.6-26.9 17.3-50.9 44.5-50.9h1244.5c27.2 0 48.1 24 44.5 50.9L2071 1947z" fill="#173955"/>
            <path clip-path="url(#c)" d="M2043.8 1947H951l-90.3-656c-2.6-19 12.2-36 31.4-36h1210.6c19.2 0 34 16.9 31.4 36l-90.3 656z" fill="#1E4B70"/>
            <path clip-path="url(#c)" d="M2031 1987H963.8c-22.1 0-40-17.9-40-40s17.9-40 40-40H2031c22.1 0 40 17.9 40 40s-17.9 40-40 40z" fill="#173955"/>
            <path clip-path="url(#c)" fill="none" opacity=".5" d="M963.8 1987L869 2250h1215l-53-263z"/>
        </g>
    </switch>
    <g opacity=".501">
        <g transform="matrix(.58908 0 0 .598 1343.312 1434.014)">
            <circle r="85.496" cy="139.163" cx="184.754" fill="#de5866"/>
            <path d="M497.503 451.337h-490l234.62-295.49 33 54 29.99-6 56.97 82.64 49.53 71.85 16.5-16.5z" fill="#526071"/>
            <path d="M179.123 362.947l-63 37.5 18.91 50.89H7.503l234.62-295.49-72 157.6z" fill="#3e4a56"/>
            <path d="M362.083 286.487l-47.97 47.96-89.99-52.5-54 31.5-28.79-30.66 100.79-126.94 33 54 29.99-6z" fill="#e7e8ed"/>
            <path d="M242.123 155.847l-72 157.6-28.79-30.66z" fill="#b7bcc9"/>
        </g>
        <path d="M1640.112 1696.32l-40.876-65.48a4.411 4.411 0 00-3.245-2.056 4.38 4.38 0 00-3.61 1.286l-5.968 6.058-59.724-87.953a4.389 4.389 0 00-4.504-1.852l-14.645 2.973-17.83-29.617a4.409 4.409 0 00-3.499-2.138 4.407 4.407 0 00-3.73 1.688l-138.211 176.702a4.54 4.54 0 00-.518 4.74 4.413 4.413 0 003.978 2.534h215.083c2.44 0 4.418-2.008 4.418-4.485 0-2.477-1.978-4.485-4.418-4.485h-205.934l69.968-89.453 13.46 14.552a4.37 4.37 0 005.447.804l29.585-17.518 50.785 30.076a4.352 4.352 0 002.225.611 4.38 4.38 0 003.125-1.313l17.674-17.938a4.533 4.533 0 00.001-6.343 4.371 4.371 0 00-6.248 0l-15.266 15.494-50.07-29.653a4.36 4.36 0 00-4.453 0l-28.772 17.038-11.94-12.909 53.068-67.847 25.41 42.208a4.4 4.4 0 003.774 2.146 4.34 4.34 0 002.299-.659c2.082-1.291 2.739-4.052 1.466-6.165l-5.97-9.917 8.618-1.75 61.083 89.956a4.407 4.407 0 003.236 1.92 4.387 4.387 0 003.525-1.294l5.817-5.906 33.623 53.86h-50.81c-2.44 0-4.417 2.009-4.417 4.486s1.978 4.485 4.418 4.485h58.84c1.612 0 3.095-.89 3.871-2.323a4.545 4.545 0 00-.139-4.564z"/>
        <path d="M1480.766 1657.845l-18.203 7.392-9.724-21.262a4.442 4.442 0 00-2.704-2.397 4.361 4.361 0 00-3.563.432l-37.11 22.424c-2.098 1.267-2.786 4.02-1.537 6.148 1.248 2.128 3.96 2.827 6.056 1.56l32.904-19.883 9.426 20.608a4.414 4.414 0 004.008 2.597c.547 0 1.103-.104 1.64-.322l22.09-8.97c2.265-.92 3.367-3.53 2.46-5.83-.906-2.297-3.477-3.418-5.743-2.497zm-41.42-91.719c.345.084.691.124 1.032.124 1.997 0 3.808-1.383 4.294-3.441.567-2.41-.895-4.83-3.268-5.407-20.727-5.039-35.203-23.692-35.203-45.361 0-14.211 6.268-27.472 17.195-36.383 1.902-1.551 2.205-4.375.676-6.306a4.372 4.372 0 00-6.21-.687c-13.027 10.623-20.497 26.433-20.497 43.377 0 25.834 17.263 48.074 41.98 54.084zm-4.814-97.177a45.092 45.092 0 0117.615-3.55c25.335 0 45.946 20.924 45.946 46.642 0 3.167-.314 6.331-.933 9.405-.49 2.427 1.052 4.796 3.443 5.293.298.062.596.092.89.092 2.054 0 3.896-1.463 4.324-3.587a56.851 56.851 0 001.112-11.203c0-30.664-24.575-55.612-54.782-55.612a53.754 53.754 0 00-21.006 4.236c-2.253.95-3.32 3.575-2.384 5.862.936 2.288 3.522 3.373 5.775 2.422z"/>
    </g>
</svg>
